<?xml version="1.0" standalone="no"?>
<!DOCTYPE svg PUBLIC "-//W3C//DTD SVG 20010904//EN"
 "http://www.w3.org/TR/2001/REC-SVG-20010904/DTD/svg10.dtd">
<svg version="1.0" xmlns="http://www.w3.org/2000/svg"
 width="260.000000pt" height="260.000000pt" viewBox="0 0 260.000000 260.000000"
 preserveAspectRatio="xMidYMid meet">
<metadata>
Created by potrace 1.14, written by Peter Selinger 2001-2017
</metadata>
<g transform="translate(0.000000,260.000000) scale(0.100000,-0.100000)"
fill="#000000" stroke="none">
<path d="M1218 2514 c-2 -1 -25 -5 -51 -8 -117 -16 -269 -93 -375 -191 -216
-200 -294 -496 -202 -765 56 -165 172 -385 337 -637 40 -62 73 -114 73 -116 0
-1 -38 -2 -85 -2 -47 1 -89 -2 -95 -5 -9 -6 -47 -150 -155 -593 -15 -60 -24
-111 -22 -114 6 -6 1307 -6 1313 0 7 7 -168 701 -178 708 -4 3 -46 5 -93 4
-99 -1 -97 -7 -27 97 145 215 295 496 346 648 35 104 38 123 42 225 8 244
-128 494 -341 631 -124 79 -238 113 -392 118 -51 2 -94 2 -95 0z m157 -148
c57 -4 75 -8 120 -25 216 -83 361 -251 401 -466 11 -61 8 -176 -5 -221 -73
-234 -291 -617 -551 -969 l-41 -56 -33 43 c-145 190 -359 535 -461 743 -97
198 -123 299 -108 411 15 112 20 128 61 213 81 168 276 308 457 328 27 2 52 7
54 9 2 2 13 2 25 -1 12 -2 48 -6 81 -9z m-255 -1738 c41 -61 176 -225 185
-225 6 1 52 56 104 124 52 68 101 123 110 124 19 1 83 1 129 0 17 -1 31 -4 30
-8 -1 -5 2 -19 5 -33 14 -55 69 -276 72 -293 2 -10 7 -28 10 -40 18 -62 64
-56 -466 -56 l-481 -1 6 23 c3 12 27 108 53 214 l47 192 36 3 c19 2 60 2 90 0
44 -2 58 -7 70 -24z"/>
<path d="M1228 2005 c-255 -65 -289 -421 -50 -536 66 -32 179 -32 239 -1 66
35 110 79 139 140 102 216 -96 457 -328 397z m158 -166 c41 -38 57 -77 51
-124 -11 -98 -105 -154 -193 -115 -149 65 -93 281 69 267 32 -3 56 -12 73 -28z"/>
</g>
</svg>
